<mxfile host="65bd71144e">
    <diagram id="fUU3eTQK2Krqb0j5PKWN" name="Page-1">
        <mxGraphModel dx="1409" dy="963" grid="1" gridSize="10" guides="1" tooltips="1" connect="1" arrows="1" fold="1" page="1" pageScale="1" pageWidth="827" pageHeight="1169" math="0" shadow="0">
            <root>
                <mxCell id="0"/>
                <mxCell id="1" parent="0"/>
                <mxCell id="-WORGkZip4nCEqT5M6iW-1" value="XAI" style="rounded=0;fontSize=10;html=1;" parent="1" vertex="1">
                    <mxGeometry x="50" y="548" width="110" height="30" as="geometry"/>
                </mxCell>
                <mxCell id="xde6bj1MVYbyTkNECEby-100" value="" style="rounded=0;orthogonalLoop=1;jettySize=auto;exitX=1;exitY=0.5;exitDx=0;exitDy=0;entryX=0;entryY=0.5;entryDx=0;entryDy=0;endArrow=none;endFill=0;fontSize=10;html=1;" parent="1" source="-WORGkZip4nCEqT5M6iW-3" target="-WORGkZip4nCEqT5M6iW-4" edge="1">
                    <mxGeometry relative="1" as="geometry"/>
                </mxCell>
                <mxCell id="xde6bj1MVYbyTkNECEby-101" value="" style="rounded=0;orthogonalLoop=1;jettySize=auto;exitX=1;exitY=0.5;exitDx=0;exitDy=0;entryX=0;entryY=0.5;entryDx=0;entryDy=0;endArrow=none;endFill=0;fontSize=10;html=1;" parent="1" source="-WORGkZip4nCEqT5M6iW-3" target="-WORGkZip4nCEqT5M6iW-15" edge="1">
                    <mxGeometry relative="1" as="geometry"/>
                </mxCell>
                <mxCell id="-WORGkZip4nCEqT5M6iW-3" value="Post-Hoc Explanation" style="rounded=0;fontSize=10;html=1;" parent="1" vertex="1">
                    <mxGeometry x="200" y="430" width="110" height="30" as="geometry"/>
                </mxCell>
                <mxCell id="xde6bj1MVYbyTkNECEby-95" value="" style="rounded=0;orthogonalLoop=1;jettySize=auto;exitX=1;exitY=0.5;exitDx=0;exitDy=0;entryX=0;entryY=0.5;entryDx=0;entryDy=0;endArrow=none;endFill=0;fontSize=10;html=1;" parent="1" source="-WORGkZip4nCEqT5M6iW-4" target="28" edge="1">
                    <mxGeometry relative="1" as="geometry"/>
                </mxCell>
                <mxCell id="xde6bj1MVYbyTkNECEby-96" value="" style="rounded=0;orthogonalLoop=1;jettySize=auto;exitX=1;exitY=0.5;exitDx=0;exitDy=0;entryX=0;entryY=0.5;entryDx=0;entryDy=0;endArrow=none;endFill=0;fontSize=10;html=1;" parent="1" source="-WORGkZip4nCEqT5M6iW-4" target="29" edge="1">
                    <mxGeometry relative="1" as="geometry"/>
                </mxCell>
                <mxCell id="xde6bj1MVYbyTkNECEby-97" value="" style="rounded=0;orthogonalLoop=1;jettySize=auto;exitX=1;exitY=0.5;exitDx=0;exitDy=0;entryX=0;entryY=0.5;entryDx=0;entryDy=0;endArrow=none;endFill=0;fontSize=10;html=1;" parent="1" source="-WORGkZip4nCEqT5M6iW-4" target="30" edge="1">
                    <mxGeometry relative="1" as="geometry"/>
                </mxCell>
                <mxCell id="xde6bj1MVYbyTkNECEby-98" value="" style="rounded=0;orthogonalLoop=1;jettySize=auto;exitX=1;exitY=0.5;exitDx=0;exitDy=0;entryX=0;entryY=0.5;entryDx=0;entryDy=0;endArrow=none;endFill=0;fontSize=10;html=1;" parent="1" source="-WORGkZip4nCEqT5M6iW-4" target="31" edge="1">
                    <mxGeometry relative="1" as="geometry"/>
                </mxCell>
                <mxCell id="-WORGkZip4nCEqT5M6iW-4" value="Model-Specific &lt;br&gt;Methods" style="rounded=0;fontSize=10;html=1;" parent="1" vertex="1">
                    <mxGeometry x="350" y="320" width="110" height="30" as="geometry"/>
                </mxCell>
                <mxCell id="-WORGkZip4nCEqT5M6iW-5" value="Build Interpretable &lt;br&gt;Model" style="rounded=0;fontSize=10;html=1;" parent="1" vertex="1">
                    <mxGeometry x="200" y="660" width="110" height="30" as="geometry"/>
                </mxCell>
                <mxCell id="xde6bj1MVYbyTkNECEby-85" value="" style="rounded=0;orthogonalLoop=1;jettySize=auto;exitX=1;exitY=0.5;exitDx=0;exitDy=0;entryX=0;entryY=0.5;entryDx=0;entryDy=0;endArrow=none;endFill=0;fontSize=10;html=1;" parent="1" source="-WORGkZip4nCEqT5M6iW-15" target="-WORGkZip4nCEqT5M6iW-24" edge="1">
                    <mxGeometry relative="1" as="geometry"/>
                </mxCell>
                <mxCell id="xde6bj1MVYbyTkNECEby-86" value="" style="rounded=0;orthogonalLoop=1;jettySize=auto;exitX=1;exitY=0.5;exitDx=0;exitDy=0;entryX=0;entryY=0.5;entryDx=0;entryDy=0;endArrow=none;endFill=0;fontSize=10;html=1;" parent="1" source="-WORGkZip4nCEqT5M6iW-15" target="-WORGkZip4nCEqT5M6iW-20" edge="1">
                    <mxGeometry relative="1" as="geometry"/>
                </mxCell>
                <mxCell id="xde6bj1MVYbyTkNECEby-99" value="" style="rounded=0;orthogonalLoop=1;jettySize=auto;exitX=1;exitY=0.5;exitDx=0;exitDy=0;entryX=0;entryY=0.5;entryDx=0;entryDy=0;endArrow=none;endFill=0;fontSize=10;html=1;" parent="1" source="-WORGkZip4nCEqT5M6iW-15" target="-WORGkZip4nCEqT5M6iW-23" edge="1">
                    <mxGeometry relative="1" as="geometry"/>
                </mxCell>
                <mxCell id="-WORGkZip4nCEqT5M6iW-15" value="Model-Agnostic &lt;br&gt;Methods" style="rounded=0;fontSize=10;html=1;" parent="1" vertex="1">
                    <mxGeometry x="350" y="548" width="110" height="30" as="geometry"/>
                </mxCell>
                <mxCell id="-WORGkZip4nCEqT5M6iW-20" value="Explain by &lt;br&gt;Simplification" style="rounded=0;fontSize=10;html=1;" parent="1" vertex="1">
                    <mxGeometry x="500" y="685" width="110" height="30" as="geometry"/>
                </mxCell>
                <mxCell id="-WORGkZip4nCEqT5M6iW-23" value="Explain by Feature &lt;br&gt;Importance&amp;nbsp;" style="rounded=0;fontSize=10;html=1;" parent="1" vertex="1">
                    <mxGeometry x="500" y="430" width="110" height="30" as="geometry"/>
                </mxCell>
                <mxCell id="-WORGkZip4nCEqT5M6iW-24" value="Explain by &lt;br&gt;Visualization&amp;nbsp;" style="rounded=0;fontSize=10;html=1;" parent="1" vertex="1">
                    <mxGeometry x="500" y="548" width="110" height="30" as="geometry"/>
                </mxCell>
                <mxCell id="xde6bj1MVYbyTkNECEby-93" value="" style="rounded=0;orthogonalLoop=1;jettySize=auto;exitX=1;exitY=0.5;exitDx=0;exitDy=0;entryX=0;entryY=0.5;entryDx=0;entryDy=0;endArrow=none;endFill=0;fontSize=10;html=1;" parent="1" source="-WORGkZip4nCEqT5M6iW-26" target="38" edge="1">
                    <mxGeometry relative="1" as="geometry"/>
                </mxCell>
                <mxCell id="xde6bj1MVYbyTkNECEby-94" value="" style="rounded=0;orthogonalLoop=1;jettySize=auto;exitX=1;exitY=0.5;exitDx=0;exitDy=0;entryX=0;entryY=0.5;entryDx=0;entryDy=0;endArrow=none;endFill=0;fontSize=10;html=1;" parent="1" source="-WORGkZip4nCEqT5M6iW-26" target="44" edge="1">
                    <mxGeometry relative="1" as="geometry"/>
                </mxCell>
                <mxCell id="-WORGkZip4nCEqT5M6iW-26" value="Feature Masking" style="rounded=0;fontSize=10;html=1;" parent="1" vertex="1">
                    <mxGeometry x="650" y="300" width="110" height="30" as="geometry"/>
                </mxCell>
                <mxCell id="xde6bj1MVYbyTkNECEby-89" value="" style="rounded=0;orthogonalLoop=1;jettySize=auto;exitX=1;exitY=0.5;exitDx=0;exitDy=0;entryX=0;entryY=0.5;entryDx=0;entryDy=0;endArrow=none;endFill=0;fontSize=10;html=1;" parent="1" source="-WORGkZip4nCEqT5M6iW-27" target="81" edge="1">
                    <mxGeometry relative="1" as="geometry"/>
                </mxCell>
                <mxCell id="xde6bj1MVYbyTkNECEby-90" value="" style="rounded=0;orthogonalLoop=1;jettySize=auto;exitX=1;exitY=0.5;exitDx=0;exitDy=0;entryX=0;entryY=0.5;entryDx=0;entryDy=0;endArrow=none;endFill=0;fontSize=10;html=1;" parent="1" source="-WORGkZip4nCEqT5M6iW-27" target="83" edge="1">
                    <mxGeometry relative="1" as="geometry"/>
                </mxCell>
                <mxCell id="xde6bj1MVYbyTkNECEby-91" value="" style="rounded=0;orthogonalLoop=1;jettySize=auto;exitX=1;exitY=0.5;exitDx=0;exitDy=0;entryX=0;entryY=0.5;entryDx=0;entryDy=0;endArrow=none;endFill=0;fontSize=10;html=1;" parent="1" source="-WORGkZip4nCEqT5M6iW-27" target="49" edge="1">
                    <mxGeometry relative="1" as="geometry"/>
                </mxCell>
                <mxCell id="xde6bj1MVYbyTkNECEby-92" value="" style="rounded=0;orthogonalLoop=1;jettySize=auto;exitX=1;exitY=0.5;exitDx=0;exitDy=0;entryX=0;entryY=0.5;entryDx=0;entryDy=0;endArrow=none;endFill=0;fontSize=10;html=1;" parent="1" source="-WORGkZip4nCEqT5M6iW-27" target="41" edge="1">
                    <mxGeometry relative="1" as="geometry"/>
                </mxCell>
                <mxCell id="-WORGkZip4nCEqT5M6iW-27" value="Feature Mutation" style="rounded=0;fontSize=10;html=1;" parent="1" vertex="1">
                    <mxGeometry x="650" y="430" width="110" height="30" as="geometry"/>
                </mxCell>
                <mxCell id="-WORGkZip4nCEqT5M6iW-43" value="Accumulated &lt;br&gt;Local Effects (ALE)*" style="rounded=0;fontSize=10;html=1;" parent="1" vertex="1">
                    <mxGeometry x="650" y="570" width="110" height="30" as="geometry"/>
                </mxCell>
                <mxCell id="-WORGkZip4nCEqT5M6iW-45" value="Rule-based Learner" style="rounded=0;fontSize=10;html=1;" parent="1" vertex="1">
                    <mxGeometry x="650" y="665" width="110" height="30" as="geometry"/>
                </mxCell>
                <mxCell id="QQmzySU8mVnGRCFx_2Iw-1" value="Partial Dependence &lt;br&gt;Plot (PDP)*" style="rounded=0;fontSize=10;html=1;" parent="1" vertex="1">
                    <mxGeometry x="650" y="480" width="110" height="30" as="geometry"/>
                </mxCell>
                <mxCell id="22" value="Linear Regression" style="rounded=0;fontSize=10;html=1;" parent="1" vertex="1">
                    <mxGeometry x="350" y="600" width="110" height="30" as="geometry"/>
                </mxCell>
                <mxCell id="23" value="Decision Tree" style="rounded=0;fontSize=10;html=1;" parent="1" vertex="1">
                    <mxGeometry x="350" y="680" width="110" height="30" as="geometry"/>
                </mxCell>
                <mxCell id="24" value="Logistic Regression" style="rounded=0;fontSize=10;html=1;" parent="1" vertex="1">
                    <mxGeometry x="350" y="640" width="110" height="30" as="geometry"/>
                </mxCell>
                <mxCell id="27" value="K-Nearest Neighbors" style="rounded=0;fontSize=10;html=1;" parent="1" vertex="1">
                    <mxGeometry x="350" y="720" width="110" height="30" as="geometry"/>
                </mxCell>
                <mxCell id="28" value="Support Vector &lt;br&gt;Machines*" style="rounded=0;fontSize=10;html=1;" parent="1" vertex="1">
                    <mxGeometry x="500" y="260" width="110" height="30" as="geometry"/>
                </mxCell>
                <mxCell id="29" value="Recurrent Neural &lt;br&gt;Network*" style="rounded=0;fontSize=10;html=1;" parent="1" vertex="1">
                    <mxGeometry x="500" y="300" width="110" height="30" as="geometry"/>
                </mxCell>
                <mxCell id="30" value="Convolutional Neural&lt;br&gt;Network*" style="rounded=0;fontSize=10;html=1;" parent="1" vertex="1">
                    <mxGeometry x="500" y="340" width="110" height="30" as="geometry"/>
                </mxCell>
                <mxCell id="31" value="Deep Networks*" style="rounded=0;fontSize=10;html=1;" parent="1" vertex="1">
                    <mxGeometry x="500" y="380" width="110" height="30" as="geometry"/>
                </mxCell>
                <mxCell id="34" value="Individual Conditional &lt;br&gt;Expectation (ICE)*" style="rounded=0;fontSize=10;html=1;" parent="1" vertex="1">
                    <mxGeometry x="650" y="525" width="110" height="30" as="geometry"/>
                </mxCell>
                <mxCell id="36" value="Decision Set*" style="rounded=0;fontSize=10;html=1;" parent="1" vertex="1">
                    <mxGeometry x="800" y="625" width="110" height="30" as="geometry"/>
                </mxCell>
                <mxCell id="37" value="Bayesian Analysis*" style="rounded=0;fontSize=10;html=1;" parent="1" vertex="1">
                    <mxGeometry x="800" y="665" width="110" height="30" as="geometry"/>
                </mxCell>
                <mxCell id="38" value="Shapley Value*" style="rounded=0;fontSize=10;html=1;" parent="1" vertex="1">
                    <mxGeometry x="800" y="280" width="110" height="30" as="geometry"/>
                </mxCell>
                <mxCell id="40" value="Saliency Map*" style="rounded=0;fontSize=10;html=1;" parent="1" vertex="1">
                    <mxGeometry x="650" y="610" width="110" height="30" as="geometry"/>
                </mxCell>
                <mxCell id="44" value="SHAP*" style="rounded=0;fontSize=10;html=1;" parent="1" vertex="1">
                    <mxGeometry x="800" y="320" width="110" height="30" as="geometry"/>
                </mxCell>
                <mxCell id="45" value="Additional Interpretable &lt;br&gt;Model" style="rounded=0;fontSize=10;html=1;" parent="1" vertex="1">
                    <mxGeometry x="650" y="705" width="110" height="30" as="geometry"/>
                </mxCell>
                <mxCell id="46" value="LIME*" style="rounded=0;fontSize=10;html=1;" parent="1" vertex="1">
                    <mxGeometry x="800" y="705" width="110" height="30" as="geometry"/>
                </mxCell>
                <mxCell id="47" value="Anchors*" style="rounded=0;fontSize=10;html=1;" parent="1" vertex="1">
                    <mxGeometry x="800" y="745" width="110" height="30" as="geometry"/>
                </mxCell>
                <mxCell id="48" value="Preddiff" style="rounded=0;fontSize=10;html=1;" parent="1" vertex="1">
                    <mxGeometry x="800" y="230" width="110" height="30" as="geometry"/>
                </mxCell>
                <mxCell id="50" value="" style="endArrow=none;fontFamily=Helvetica;fontSize=10;fontColor=default;entryX=0;entryY=0.5;entryDx=0;entryDy=0;exitX=1;exitY=0.5;exitDx=0;exitDy=0;rounded=0;html=1;" parent="1" source="-WORGkZip4nCEqT5M6iW-1" target="-WORGkZip4nCEqT5M6iW-3" edge="1">
                    <mxGeometry width="50" height="50" relative="1" as="geometry">
                        <mxPoint x="130" y="460" as="sourcePoint"/>
                        <mxPoint x="180" y="410" as="targetPoint"/>
                    </mxGeometry>
                </mxCell>
                <mxCell id="51" value="" style="endArrow=none;fontFamily=Helvetica;fontSize=10;fontColor=default;exitX=1;exitY=0.5;exitDx=0;exitDy=0;entryX=0;entryY=0.5;entryDx=0;entryDy=0;rounded=0;html=1;" parent="1" source="-WORGkZip4nCEqT5M6iW-1" target="-WORGkZip4nCEqT5M6iW-5" edge="1">
                    <mxGeometry width="50" height="50" relative="1" as="geometry">
                        <mxPoint x="150" y="650" as="sourcePoint"/>
                        <mxPoint x="200" y="600" as="targetPoint"/>
                    </mxGeometry>
                </mxCell>
                <mxCell id="61" value="" style="endArrow=none;fontFamily=Helvetica;fontSize=10;fontColor=default;entryX=0;entryY=0.5;entryDx=0;entryDy=0;exitX=1;exitY=0.5;exitDx=0;exitDy=0;rounded=0;html=1;" parent="1" source="-WORGkZip4nCEqT5M6iW-5" target="22" edge="1">
                    <mxGeometry width="50" height="50" relative="1" as="geometry">
                        <mxPoint x="270" y="660" as="sourcePoint"/>
                        <mxPoint x="320" y="610" as="targetPoint"/>
                    </mxGeometry>
                </mxCell>
                <mxCell id="62" value="" style="endArrow=none;fontFamily=Helvetica;fontSize=10;fontColor=default;entryX=0;entryY=0.5;entryDx=0;entryDy=0;exitX=1;exitY=0.5;exitDx=0;exitDy=0;rounded=0;html=1;" parent="1" source="-WORGkZip4nCEqT5M6iW-5" target="24" edge="1">
                    <mxGeometry width="50" height="50" relative="1" as="geometry">
                        <mxPoint x="260" y="790" as="sourcePoint"/>
                        <mxPoint x="310" y="740" as="targetPoint"/>
                    </mxGeometry>
                </mxCell>
                <mxCell id="63" value="" style="endArrow=none;fontFamily=Helvetica;fontSize=10;fontColor=default;entryX=0;entryY=0.5;entryDx=0;entryDy=0;exitX=1;exitY=0.5;exitDx=0;exitDy=0;rounded=0;html=1;" parent="1" source="-WORGkZip4nCEqT5M6iW-5" target="23" edge="1">
                    <mxGeometry width="50" height="50" relative="1" as="geometry">
                        <mxPoint x="270" y="790" as="sourcePoint"/>
                        <mxPoint x="320" y="740" as="targetPoint"/>
                    </mxGeometry>
                </mxCell>
                <mxCell id="64" value="" style="endArrow=none;fontFamily=Helvetica;fontSize=10;fontColor=default;entryX=0;entryY=0.5;entryDx=0;entryDy=0;exitX=1;exitY=0.5;exitDx=0;exitDy=0;rounded=0;html=1;" parent="1" source="-WORGkZip4nCEqT5M6iW-5" target="27" edge="1">
                    <mxGeometry width="50" height="50" relative="1" as="geometry">
                        <mxPoint x="200" y="810" as="sourcePoint"/>
                        <mxPoint x="250" y="760" as="targetPoint"/>
                    </mxGeometry>
                </mxCell>
                <mxCell id="65" value="" style="endArrow=none;fontFamily=Helvetica;fontSize=10;fontColor=default;entryX=0;entryY=0.5;entryDx=0;entryDy=0;exitX=1;exitY=0.5;exitDx=0;exitDy=0;rounded=0;html=1;" parent="1" source="-WORGkZip4nCEqT5M6iW-24" target="QQmzySU8mVnGRCFx_2Iw-1" edge="1">
                    <mxGeometry width="50" height="50" relative="1" as="geometry">
                        <mxPoint x="600" y="665" as="sourcePoint"/>
                        <mxPoint x="650" y="615" as="targetPoint"/>
                    </mxGeometry>
                </mxCell>
                <mxCell id="66" value="" style="endArrow=none;fontFamily=Helvetica;fontSize=10;fontColor=default;entryX=0;entryY=0.5;entryDx=0;entryDy=0;exitX=1;exitY=0.5;exitDx=0;exitDy=0;rounded=0;html=1;" parent="1" source="-WORGkZip4nCEqT5M6iW-24" target="34" edge="1">
                    <mxGeometry width="50" height="50" relative="1" as="geometry">
                        <mxPoint x="580" y="755" as="sourcePoint"/>
                        <mxPoint x="630" y="705" as="targetPoint"/>
                    </mxGeometry>
                </mxCell>
                <mxCell id="67" value="" style="endArrow=none;fontFamily=Helvetica;fontSize=10;fontColor=default;entryX=0;entryY=0.5;entryDx=0;entryDy=0;exitX=1;exitY=0.5;exitDx=0;exitDy=0;rounded=0;html=1;" parent="1" source="-WORGkZip4nCEqT5M6iW-24" target="-WORGkZip4nCEqT5M6iW-43" edge="1">
                    <mxGeometry width="50" height="50" relative="1" as="geometry">
                        <mxPoint x="540" y="745" as="sourcePoint"/>
                        <mxPoint x="590" y="695" as="targetPoint"/>
                    </mxGeometry>
                </mxCell>
                <mxCell id="68" value="" style="endArrow=none;fontFamily=Helvetica;fontSize=10;fontColor=default;entryX=0;entryY=0.5;entryDx=0;entryDy=0;exitX=1;exitY=0.5;exitDx=0;exitDy=0;rounded=0;html=1;" parent="1" source="-WORGkZip4nCEqT5M6iW-24" target="40" edge="1">
                    <mxGeometry width="50" height="50" relative="1" as="geometry">
                        <mxPoint x="570" y="755" as="sourcePoint"/>
                        <mxPoint x="620" y="705" as="targetPoint"/>
                    </mxGeometry>
                </mxCell>
                <mxCell id="69" value="" style="endArrow=none;fontFamily=Helvetica;fontSize=10;fontColor=default;entryX=0;entryY=0.5;entryDx=0;entryDy=0;exitX=1;exitY=0.5;exitDx=0;exitDy=0;rounded=0;html=1;" parent="1" source="-WORGkZip4nCEqT5M6iW-20" target="-WORGkZip4nCEqT5M6iW-45" edge="1">
                    <mxGeometry width="50" height="50" relative="1" as="geometry">
                        <mxPoint x="570" y="795" as="sourcePoint"/>
                        <mxPoint x="620" y="745" as="targetPoint"/>
                    </mxGeometry>
                </mxCell>
                <mxCell id="70" value="" style="endArrow=none;fontFamily=Helvetica;fontSize=10;fontColor=default;entryX=0;entryY=0.5;entryDx=0;entryDy=0;exitX=1;exitY=0.5;exitDx=0;exitDy=0;rounded=0;html=1;" parent="1" source="-WORGkZip4nCEqT5M6iW-45" target="36" edge="1">
                    <mxGeometry width="50" height="50" relative="1" as="geometry">
                        <mxPoint x="550" y="795" as="sourcePoint"/>
                        <mxPoint x="600" y="745" as="targetPoint"/>
                    </mxGeometry>
                </mxCell>
                <mxCell id="71" value="" style="endArrow=none;fontFamily=Helvetica;fontSize=10;fontColor=default;entryX=0;entryY=0.5;entryDx=0;entryDy=0;exitX=1;exitY=0.5;exitDx=0;exitDy=0;rounded=0;html=1;" parent="1" source="-WORGkZip4nCEqT5M6iW-45" target="37" edge="1">
                    <mxGeometry width="50" height="50" relative="1" as="geometry">
                        <mxPoint x="570" y="795" as="sourcePoint"/>
                        <mxPoint x="620" y="745" as="targetPoint"/>
                    </mxGeometry>
                </mxCell>
                <mxCell id="72" value="" style="endArrow=none;fontFamily=Helvetica;fontSize=10;fontColor=default;entryX=0;entryY=0.5;entryDx=0;entryDy=0;exitX=1;exitY=0.5;exitDx=0;exitDy=0;rounded=0;html=1;" parent="1" source="-WORGkZip4nCEqT5M6iW-20" target="45" edge="1">
                    <mxGeometry width="50" height="50" relative="1" as="geometry">
                        <mxPoint x="550" y="785" as="sourcePoint"/>
                        <mxPoint x="600" y="735" as="targetPoint"/>
                    </mxGeometry>
                </mxCell>
                <mxCell id="73" value="" style="endArrow=none;fontFamily=Helvetica;fontSize=10;fontColor=default;entryX=0;entryY=0.5;entryDx=0;entryDy=0;exitX=1;exitY=0.5;exitDx=0;exitDy=0;rounded=0;html=1;" parent="1" source="45" target="46" edge="1">
                    <mxGeometry width="50" height="50" relative="1" as="geometry">
                        <mxPoint x="640" y="825" as="sourcePoint"/>
                        <mxPoint x="690" y="775" as="targetPoint"/>
                    </mxGeometry>
                </mxCell>
                <mxCell id="74" value="" style="endArrow=none;fontFamily=Helvetica;fontSize=10;fontColor=default;entryX=0;entryY=0.5;entryDx=0;entryDy=0;exitX=1;exitY=0.5;exitDx=0;exitDy=0;rounded=0;html=1;" parent="1" source="45" target="47" edge="1">
                    <mxGeometry width="50" height="50" relative="1" as="geometry">
                        <mxPoint x="580" y="805" as="sourcePoint"/>
                        <mxPoint x="630" y="755" as="targetPoint"/>
                    </mxGeometry>
                </mxCell>
                <mxCell id="75" value="" style="endArrow=none;fontFamily=Helvetica;fontSize=10;fontColor=default;entryX=0;entryY=0.5;entryDx=0;entryDy=0;exitX=1;exitY=0.5;exitDx=0;exitDy=0;rounded=0;html=1;" parent="1" source="-WORGkZip4nCEqT5M6iW-23" target="-WORGkZip4nCEqT5M6iW-26" edge="1">
                    <mxGeometry width="50" height="50" relative="1" as="geometry">
                        <mxPoint x="560" y="440" as="sourcePoint"/>
                        <mxPoint x="610" y="390" as="targetPoint"/>
                    </mxGeometry>
                </mxCell>
                <mxCell id="78" value="" style="endArrow=none;fontFamily=Helvetica;fontSize=10;fontColor=default;entryX=0;entryY=0.5;entryDx=0;entryDy=0;exitX=1;exitY=0.5;exitDx=0;exitDy=0;rounded=0;html=1;" parent="1" source="-WORGkZip4nCEqT5M6iW-23" target="-WORGkZip4nCEqT5M6iW-27" edge="1">
                    <mxGeometry width="50" height="50" relative="1" as="geometry">
                        <mxPoint x="560" y="480" as="sourcePoint"/>
                        <mxPoint x="610" y="430" as="targetPoint"/>
                    </mxGeometry>
                </mxCell>
                <mxCell id="85" value="&lt;font style=&quot;font-size: 13px&quot;&gt;Figure X: Taxonomy of Explainable AI methods. References:&amp;nbsp;&amp;nbsp;&lt;/font&gt;" style="text;html=1;strokeColor=none;fillColor=none;align=center;verticalAlign=middle;rounded=0;fontFamily=Helvetica;fontSize=16;fontColor=default;" parent="1" vertex="1">
                    <mxGeometry x="270" y="860" width="490" height="30" as="geometry"/>
                </mxCell>
                <mxCell id="xde6bj1MVYbyTkNECEby-102" value="" style="group" parent="1" vertex="1" connectable="0">
                    <mxGeometry x="800" y="370" width="110" height="150" as="geometry"/>
                </mxCell>
                <mxCell id="41" value="Accumulated &lt;br&gt;Local Effects (ALE)*" style="rounded=0;fontSize=10;html=1;" parent="xde6bj1MVYbyTkNECEby-102" vertex="1">
                    <mxGeometry y="120" width="110" height="30" as="geometry"/>
                </mxCell>
                <mxCell id="49" value="Partial Dependence &lt;br&gt;Plot (PDP)*" style="rounded=0;fontSize=10;html=1;" parent="xde6bj1MVYbyTkNECEby-102" vertex="1">
                    <mxGeometry y="80" width="110" height="30" as="geometry"/>
                </mxCell>
                <mxCell id="81" value="Anchors*" style="rounded=0;fontSize=10;html=1;" parent="xde6bj1MVYbyTkNECEby-102" vertex="1">
                    <mxGeometry width="110" height="30" as="geometry"/>
                </mxCell>
                <mxCell id="83" value="LIME*" style="rounded=0;fontSize=10;html=1;" parent="xde6bj1MVYbyTkNECEby-102" vertex="1">
                    <mxGeometry y="40" width="110" height="30" as="geometry"/>
                </mxCell>
                <mxCell id="xde6bj1MVYbyTkNECEby-103" value="Explainable AI" style="rounded=0;fontSize=12;html=1;" parent="1" vertex="1">
                    <mxGeometry x="1080" y="538" width="90" height="25.98" as="geometry"/>
                </mxCell>
                <mxCell id="xde6bj1MVYbyTkNECEby-104" value="" style="rounded=0;orthogonalLoop=1;jettySize=auto;exitX=1;exitY=0.5;exitDx=0;exitDy=0;entryX=0;entryY=0.5;entryDx=0;entryDy=0;endArrow=none;endFill=0;fontSize=10;html=1;edgeStyle=orthogonalEdgeStyle;" parent="1" source="xde6bj1MVYbyTkNECEby-106" target="xde6bj1MVYbyTkNECEby-111" edge="1">
                    <mxGeometry relative="1" as="geometry"/>
                </mxCell>
                <mxCell id="xde6bj1MVYbyTkNECEby-105" value="" style="rounded=0;orthogonalLoop=1;jettySize=auto;exitX=1;exitY=0.5;exitDx=0;exitDy=0;entryX=0;entryY=0.5;entryDx=0;entryDy=0;endArrow=none;endFill=0;fontSize=10;html=1;edgeStyle=orthogonalEdgeStyle;" parent="1" source="xde6bj1MVYbyTkNECEby-106" target="xde6bj1MVYbyTkNECEby-116" edge="1">
                    <mxGeometry relative="1" as="geometry"/>
                </mxCell>
                <mxCell id="xde6bj1MVYbyTkNECEby-106" value="Post-Hoc&lt;br&gt;Explanation" style="rounded=0;fontSize=12;html=1;" parent="1" vertex="1">
                    <mxGeometry x="1210" y="420" width="149.2123" height="29.9212" as="geometry"/>
                </mxCell>
                <mxCell id="xde6bj1MVYbyTkNECEby-107" value="" style="rounded=0;orthogonalLoop=1;jettySize=auto;exitX=1;exitY=0.5;exitDx=0;exitDy=0;entryX=0;entryY=0.5;entryDx=0;entryDy=0;endArrow=none;endFill=0;fontSize=10;html=1;edgeStyle=orthogonalEdgeStyle;" parent="1" source="xde6bj1MVYbyTkNECEby-111" target="xde6bj1MVYbyTkNECEby-135" edge="1">
                    <mxGeometry relative="1" as="geometry"/>
                </mxCell>
                <mxCell id="xde6bj1MVYbyTkNECEby-108" value="" style="rounded=0;orthogonalLoop=1;jettySize=auto;exitX=1;exitY=0.5;exitDx=0;exitDy=0;entryX=0;entryY=0.5;entryDx=0;entryDy=0;endArrow=none;endFill=0;fontSize=10;html=1;edgeStyle=orthogonalEdgeStyle;" parent="1" source="xde6bj1MVYbyTkNECEby-111" target="xde6bj1MVYbyTkNECEby-136" edge="1">
                    <mxGeometry relative="1" as="geometry"/>
                </mxCell>
                <mxCell id="xde6bj1MVYbyTkNECEby-109" value="" style="rounded=0;orthogonalLoop=1;jettySize=auto;exitX=1;exitY=0.5;exitDx=0;exitDy=0;entryX=0;entryY=0.5;entryDx=0;entryDy=0;endArrow=none;endFill=0;fontSize=10;html=1;edgeStyle=orthogonalEdgeStyle;" parent="1" source="xde6bj1MVYbyTkNECEby-111" target="xde6bj1MVYbyTkNECEby-137" edge="1">
                    <mxGeometry relative="1" as="geometry"/>
                </mxCell>
                <mxCell id="xde6bj1MVYbyTkNECEby-110" value="" style="rounded=0;orthogonalLoop=1;jettySize=auto;exitX=1;exitY=0.5;exitDx=0;exitDy=0;entryX=0;entryY=0.5;entryDx=0;entryDy=0;endArrow=none;endFill=0;fontSize=10;html=1;edgeStyle=orthogonalEdgeStyle;" parent="1" source="xde6bj1MVYbyTkNECEby-111" target="xde6bj1MVYbyTkNECEby-138" edge="1">
                    <mxGeometry relative="1" as="geometry"/>
                </mxCell>
                <mxCell id="xde6bj1MVYbyTkNECEby-111" value="Model-Specific &lt;br&gt;Methods" style="rounded=0;fontSize=12;html=1;" parent="1" vertex="1">
                    <mxGeometry x="1400" y="320" width="121.65329999999999" height="29.9212" as="geometry"/>
                </mxCell>
                <mxCell id="xde6bj1MVYbyTkNECEby-112" value="Build Interpretable &lt;br&gt;Model" style="rounded=0;fontSize=12;html=1;" parent="1" vertex="1">
                    <mxGeometry x="1210" y="650" width="149.2123" height="29.9212" as="geometry"/>
                </mxCell>
                <mxCell id="xde6bj1MVYbyTkNECEby-113" value="" style="rounded=0;orthogonalLoop=1;jettySize=auto;exitX=1;exitY=0.5;exitDx=0;exitDy=0;entryX=0;entryY=0.5;entryDx=0;entryDy=0;endArrow=none;endFill=0;fontSize=10;html=1;edgeStyle=orthogonalEdgeStyle;" parent="1" source="xde6bj1MVYbyTkNECEby-116" target="xde6bj1MVYbyTkNECEby-119" edge="1">
                    <mxGeometry relative="1" as="geometry"/>
                </mxCell>
                <mxCell id="xde6bj1MVYbyTkNECEby-114" value="" style="rounded=0;orthogonalLoop=1;jettySize=auto;exitX=1;exitY=0.5;exitDx=0;exitDy=0;entryX=0;entryY=0.5;entryDx=0;entryDy=0;endArrow=none;endFill=0;fontSize=10;html=1;edgeStyle=orthogonalEdgeStyle;" parent="1" source="xde6bj1MVYbyTkNECEby-116" target="xde6bj1MVYbyTkNECEby-117" edge="1">
                    <mxGeometry relative="1" as="geometry"/>
                </mxCell>
                <mxCell id="xde6bj1MVYbyTkNECEby-115" value="" style="rounded=0;orthogonalLoop=1;jettySize=auto;exitX=1;exitY=0.5;exitDx=0;exitDy=0;entryX=0;entryY=0.5;entryDx=0;entryDy=0;endArrow=none;endFill=0;fontSize=10;html=1;edgeStyle=orthogonalEdgeStyle;" parent="1" source="xde6bj1MVYbyTkNECEby-116" target="xde6bj1MVYbyTkNECEby-118" edge="1">
                    <mxGeometry relative="1" as="geometry"/>
                </mxCell>
                <mxCell id="xde6bj1MVYbyTkNECEby-116" value="Model-Agnostic &lt;br&gt;Methods" style="rounded=0;fontSize=12;html=1;" parent="1" vertex="1">
                    <mxGeometry x="1400" y="538" width="121.65329999999999" height="29.9212" as="geometry"/>
                </mxCell>
                <mxCell id="xde6bj1MVYbyTkNECEby-117" value="Explain by &lt;br&gt;Simplification" style="rounded=0;fontSize=12;html=1;" parent="1" vertex="1">
                    <mxGeometry x="1570" y="665" width="148.4249" height="29.9212" as="geometry"/>
                </mxCell>
                <mxCell id="xde6bj1MVYbyTkNECEby-118" value="Explain by Feature &lt;br&gt;Importance&amp;nbsp;" style="rounded=0;fontSize=12;html=1;gradientColor=none;fillColor=#CCFFFF;" parent="1" vertex="1">
                    <mxGeometry x="1570" y="430" width="148.4249" height="29.9212" as="geometry"/>
                </mxCell>
                <mxCell id="xde6bj1MVYbyTkNECEby-119" value="Explain by &lt;br&gt;Visualization&amp;nbsp;" style="rounded=0;fontSize=12;html=1;" parent="1" vertex="1">
                    <mxGeometry x="1571.58" y="538" width="148.4249" height="29.9212" as="geometry"/>
                </mxCell>
                <mxCell id="xde6bj1MVYbyTkNECEby-121" value="" style="rounded=0;orthogonalLoop=1;jettySize=auto;exitX=1;exitY=0.5;exitDx=0;exitDy=0;entryX=0;entryY=0.5;entryDx=0;entryDy=0;endArrow=none;endFill=0;fontSize=10;html=1;edgeStyle=orthogonalEdgeStyle;" parent="1" source="xde6bj1MVYbyTkNECEby-122" target="xde6bj1MVYbyTkNECEby-144" edge="1">
                    <mxGeometry relative="1" as="geometry">
                        <Array as="points">
                            <mxPoint x="1935" y="315"/>
                            <mxPoint x="1935" y="333"/>
                        </Array>
                    </mxGeometry>
                </mxCell>
                <mxCell id="xde6bj1MVYbyTkNECEby-122" value="Feature Masking" style="rounded=0;fontSize=12;html=1;gradientColor=none;fillColor=#CCFFFF;" parent="1" vertex="1">
                    <mxGeometry x="1770" y="300" width="140.1572" height="30" as="geometry"/>
                </mxCell>
                <mxCell id="xde6bj1MVYbyTkNECEby-123" value="" style="rounded=0;orthogonalLoop=1;jettySize=auto;exitX=1;exitY=0.5;exitDx=0;exitDy=0;entryX=0;entryY=0.5;entryDx=0;entryDy=0;endArrow=none;endFill=0;fontSize=10;html=1;edgeStyle=orthogonalEdgeStyle;" parent="1" source="xde6bj1MVYbyTkNECEby-127" target="xde6bj1MVYbyTkNECEby-169" edge="1">
                    <mxGeometry relative="1" as="geometry"/>
                </mxCell>
                <mxCell id="xde6bj1MVYbyTkNECEby-124" value="" style="rounded=0;orthogonalLoop=1;jettySize=auto;exitX=1;exitY=0.5;exitDx=0;exitDy=0;entryX=0;entryY=0.5;entryDx=0;entryDy=0;endArrow=none;endFill=0;fontSize=10;html=1;edgeStyle=orthogonalEdgeStyle;" parent="1" source="xde6bj1MVYbyTkNECEby-127" target="xde6bj1MVYbyTkNECEby-170" edge="1">
                    <mxGeometry relative="1" as="geometry"/>
                </mxCell>
                <mxCell id="xde6bj1MVYbyTkNECEby-125" value="" style="rounded=0;orthogonalLoop=1;jettySize=auto;exitX=1;exitY=0.5;exitDx=0;exitDy=0;entryX=0;entryY=0.5;entryDx=0;entryDy=0;endArrow=none;endFill=0;fontSize=10;html=1;edgeStyle=orthogonalEdgeStyle;" parent="1" source="xde6bj1MVYbyTkNECEby-127" target="xde6bj1MVYbyTkNECEby-168" edge="1">
                    <mxGeometry relative="1" as="geometry"/>
                </mxCell>
                <mxCell id="Oa-64PtTGQfTfldu2vpg-88" style="rounded=0;orthogonalLoop=1;jettySize=auto;html=1;exitX=1;exitY=0.5;exitDx=0;exitDy=0;entryX=0;entryY=0.5;entryDx=0;entryDy=0;fontSize=12;edgeStyle=orthogonalEdgeStyle;endArrow=none;endFill=0;" parent="1" source="xde6bj1MVYbyTkNECEby-127" target="xde6bj1MVYbyTkNECEby-167" edge="1">
                    <mxGeometry relative="1" as="geometry"/>
                </mxCell>
                <mxCell id="xde6bj1MVYbyTkNECEby-127" value="Feature Mutation" style="rounded=0;fontSize=12;html=1;gradientColor=none;fillColor=#CCFFFF;" parent="1" vertex="1">
                    <mxGeometry x="1770" y="429.92" width="140.1572" height="30" as="geometry"/>
                </mxCell>
                <mxCell id="xde6bj1MVYbyTkNECEby-129" value="Rule-based Learner" style="rounded=0;fontSize=12;html=1;" parent="1" vertex="1">
                    <mxGeometry x="1770" y="645" width="140.1572" height="30" as="geometry"/>
                </mxCell>
                <mxCell id="xde6bj1MVYbyTkNECEby-131" value="Use Regression Model" style="ellipse;whiteSpace=wrap;html=1;fontSize=11;" parent="1" vertex="1">
                    <mxGeometry x="1400" y="610" width="120" height="40" as="geometry"/>
                </mxCell>
                <mxCell id="xde6bj1MVYbyTkNECEby-132" value="Use Decision Tree Model" style="ellipse;whiteSpace=wrap;html=1;fontSize=11;" parent="1" vertex="1">
                    <mxGeometry x="1400" y="684.02" width="121.65" height="40.98" as="geometry"/>
                </mxCell>
                <mxCell id="xde6bj1MVYbyTkNECEby-135" value="Support Vector Machines" style="ellipse;whiteSpace=wrap;html=1;fontSize=11;" parent="1" vertex="1">
                    <mxGeometry x="1569.22" y="244" width="149.2123" height="36" as="geometry"/>
                </mxCell>
                <mxCell id="xde6bj1MVYbyTkNECEby-136" value="Recurrent Neural Network" style="ellipse;whiteSpace=wrap;html=1;fontSize=11;" parent="1" vertex="1">
                    <mxGeometry x="1569.21" y="290" width="149.21" height="35.98" as="geometry"/>
                </mxCell>
                <mxCell id="xde6bj1MVYbyTkNECEby-137" value="Convolutional Neural &lt;br style=&quot;font-size: 11px;&quot;&gt;Network" style="ellipse;whiteSpace=wrap;html=1;fontSize=11;" parent="1" vertex="1">
                    <mxGeometry x="1569.2199999999998" y="337" width="150" height="36" as="geometry"/>
                </mxCell>
                <mxCell id="xde6bj1MVYbyTkNECEby-138" value="Deep Networks" style="ellipse;whiteSpace=wrap;html=1;fontSize=11;" parent="1" vertex="1">
                    <mxGeometry x="1569.21" y="384" width="149.2123" height="36" as="geometry"/>
                </mxCell>
                <mxCell id="xde6bj1MVYbyTkNECEby-140" value="Decision Set" style="ellipse;whiteSpace=wrap;html=1;fontSize=11;" parent="1" vertex="1">
                    <mxGeometry x="1960" y="605" width="141.33829999999998" height="25.984199999999998" as="geometry"/>
                </mxCell>
                <mxCell id="xde6bj1MVYbyTkNECEby-141" value="Bayesian Analysis" style="ellipse;whiteSpace=wrap;html=1;fontSize=11;" parent="1" vertex="1">
                    <mxGeometry x="1960" y="647" width="141.33829999999998" height="25.984199999999998" as="geometry"/>
                </mxCell>
                <mxCell id="xde6bj1MVYbyTkNECEby-144" value="SHAP" style="ellipse;whiteSpace=wrap;html=1;fontSize=11;labelBackgroundColor=none;labelBorderColor=none;" parent="1" vertex="1">
                    <mxGeometry x="1960" y="320" width="141.33829999999998" height="25.984199999999998" as="geometry"/>
                </mxCell>
                <mxCell id="xde6bj1MVYbyTkNECEby-145" value="Additional Interpretable &lt;br&gt;Model" style="rounded=0;fontSize=12;html=1;" parent="1" vertex="1">
                    <mxGeometry x="1770" y="685" width="140.1572" height="30" as="geometry"/>
                </mxCell>
                <mxCell id="xde6bj1MVYbyTkNECEby-146" value="LIME" style="ellipse;whiteSpace=wrap;html=1;fontSize=11;" parent="1" vertex="1">
                    <mxGeometry x="1960" y="687" width="141.33829999999998" height="25.984199999999998" as="geometry"/>
                </mxCell>
                <mxCell id="xde6bj1MVYbyTkNECEby-147" value="Anchors" style="ellipse;whiteSpace=wrap;html=1;fontSize=11;" parent="1" vertex="1">
                    <mxGeometry x="1960" y="725" width="141.33829999999998" height="25.984199999999998" as="geometry"/>
                </mxCell>
                <mxCell id="xde6bj1MVYbyTkNECEby-148" value="" style="endArrow=none;fontFamily=Helvetica;fontSize=12;fontColor=default;entryX=0;entryY=0.5;entryDx=0;entryDy=0;exitX=1;exitY=0.5;exitDx=0;exitDy=0;rounded=0;html=1;edgeStyle=orthogonalEdgeStyle;" parent="1" source="xde6bj1MVYbyTkNECEby-103" target="xde6bj1MVYbyTkNECEby-106" edge="1">
                    <mxGeometry width="50" height="50" relative="1" as="geometry">
                        <mxPoint x="1180" y="450" as="sourcePoint"/>
                        <mxPoint x="1230" y="400" as="targetPoint"/>
                    </mxGeometry>
                </mxCell>
                <mxCell id="xde6bj1MVYbyTkNECEby-149" value="" style="endArrow=none;fontFamily=Helvetica;fontSize=12;fontColor=default;exitX=1;exitY=0.5;exitDx=0;exitDy=0;entryX=0;entryY=0.5;entryDx=0;entryDy=0;rounded=0;html=1;edgeStyle=orthogonalEdgeStyle;" parent="1" source="xde6bj1MVYbyTkNECEby-103" target="xde6bj1MVYbyTkNECEby-112" edge="1">
                    <mxGeometry width="50" height="50" relative="1" as="geometry">
                        <mxPoint x="1200" y="640" as="sourcePoint"/>
                        <mxPoint x="1250" y="590" as="targetPoint"/>
                    </mxGeometry>
                </mxCell>
                <mxCell id="xde6bj1MVYbyTkNECEby-150" value="" style="endArrow=none;fontFamily=Helvetica;fontSize=10;fontColor=default;entryX=0;entryY=0.5;entryDx=0;entryDy=0;exitX=1;exitY=0.5;exitDx=0;exitDy=0;rounded=0;html=1;edgeStyle=orthogonalEdgeStyle;" parent="1" source="xde6bj1MVYbyTkNECEby-112" target="xde6bj1MVYbyTkNECEby-131" edge="1">
                    <mxGeometry width="50" height="50" relative="1" as="geometry">
                        <mxPoint x="1320" y="650" as="sourcePoint"/>
                        <mxPoint x="1370" y="600" as="targetPoint"/>
                    </mxGeometry>
                </mxCell>
                <mxCell id="xde6bj1MVYbyTkNECEby-152" value="" style="endArrow=none;fontFamily=Helvetica;fontSize=10;fontColor=default;entryX=0;entryY=0.5;entryDx=0;entryDy=0;exitX=1;exitY=0.5;exitDx=0;exitDy=0;rounded=0;html=1;edgeStyle=orthogonalEdgeStyle;" parent="1" source="xde6bj1MVYbyTkNECEby-112" target="xde6bj1MVYbyTkNECEby-132" edge="1">
                    <mxGeometry width="50" height="50" relative="1" as="geometry">
                        <mxPoint x="1320" y="780" as="sourcePoint"/>
                        <mxPoint x="1370" y="730" as="targetPoint"/>
                    </mxGeometry>
                </mxCell>
                <mxCell id="xde6bj1MVYbyTkNECEby-154" value="" style="endArrow=none;fontFamily=Helvetica;fontSize=10;fontColor=default;entryX=0;entryY=0.5;entryDx=0;entryDy=0;exitX=1;exitY=0.5;exitDx=0;exitDy=0;rounded=0;html=1;edgeStyle=orthogonalEdgeStyle;" parent="1" source="xde6bj1MVYbyTkNECEby-119" target="xde6bj1MVYbyTkNECEby-130" edge="1">
                    <mxGeometry width="50" height="50" relative="1" as="geometry">
                        <mxPoint x="1690" y="655" as="sourcePoint"/>
                        <mxPoint x="1740" y="605" as="targetPoint"/>
                    </mxGeometry>
                </mxCell>
                <mxCell id="xde6bj1MVYbyTkNECEby-155" value="" style="endArrow=none;fontFamily=Helvetica;fontSize=10;fontColor=default;entryX=0;entryY=0.5;entryDx=0;entryDy=0;exitX=1;exitY=0.5;exitDx=0;exitDy=0;rounded=0;html=1;edgeStyle=orthogonalEdgeStyle;" parent="1" source="xde6bj1MVYbyTkNECEby-119" target="xde6bj1MVYbyTkNECEby-139" edge="1">
                    <mxGeometry width="50" height="50" relative="1" as="geometry">
                        <mxPoint x="1670" y="745" as="sourcePoint"/>
                        <mxPoint x="1720" y="695" as="targetPoint"/>
                    </mxGeometry>
                </mxCell>
                <mxCell id="xde6bj1MVYbyTkNECEby-156" value="" style="endArrow=none;fontFamily=Helvetica;fontSize=10;fontColor=default;entryX=0;entryY=0.5;entryDx=0;entryDy=0;exitX=1;exitY=0.5;exitDx=0;exitDy=0;rounded=0;html=1;edgeStyle=orthogonalEdgeStyle;" parent="1" source="xde6bj1MVYbyTkNECEby-119" target="xde6bj1MVYbyTkNECEby-128" edge="1">
                    <mxGeometry width="50" height="50" relative="1" as="geometry">
                        <mxPoint x="1630" y="735" as="sourcePoint"/>
                        <mxPoint x="1680" y="685" as="targetPoint"/>
                    </mxGeometry>
                </mxCell>
                <mxCell id="xde6bj1MVYbyTkNECEby-157" value="" style="endArrow=none;fontFamily=Helvetica;fontSize=10;fontColor=default;entryX=0;entryY=0.5;entryDx=0;entryDy=0;exitX=1;exitY=0.5;exitDx=0;exitDy=0;rounded=0;html=1;edgeStyle=orthogonalEdgeStyle;" parent="1" source="xde6bj1MVYbyTkNECEby-119" target="xde6bj1MVYbyTkNECEby-143" edge="1">
                    <mxGeometry width="50" height="50" relative="1" as="geometry">
                        <mxPoint x="1660" y="745" as="sourcePoint"/>
                        <mxPoint x="1710" y="695" as="targetPoint"/>
                    </mxGeometry>
                </mxCell>
                <mxCell id="xde6bj1MVYbyTkNECEby-158" value="" style="endArrow=none;fontFamily=Helvetica;fontSize=10;fontColor=default;entryX=0;entryY=0.5;entryDx=0;entryDy=0;exitX=1;exitY=0.5;exitDx=0;exitDy=0;rounded=0;html=1;edgeStyle=orthogonalEdgeStyle;" parent="1" source="xde6bj1MVYbyTkNECEby-117" target="xde6bj1MVYbyTkNECEby-129" edge="1">
                    <mxGeometry width="50" height="50" relative="1" as="geometry">
                        <mxPoint x="1660" y="785" as="sourcePoint"/>
                        <mxPoint x="1710" y="735" as="targetPoint"/>
                    </mxGeometry>
                </mxCell>
                <mxCell id="xde6bj1MVYbyTkNECEby-159" value="" style="endArrow=none;fontFamily=Helvetica;fontSize=10;fontColor=default;entryX=0;entryY=0.5;entryDx=0;entryDy=0;exitX=1;exitY=0.5;exitDx=0;exitDy=0;rounded=0;html=1;edgeStyle=orthogonalEdgeStyle;" parent="1" source="xde6bj1MVYbyTkNECEby-129" target="xde6bj1MVYbyTkNECEby-140" edge="1">
                    <mxGeometry width="50" height="50" relative="1" as="geometry">
                        <mxPoint x="1670" y="775" as="sourcePoint"/>
                        <mxPoint x="1720" y="725" as="targetPoint"/>
                    </mxGeometry>
                </mxCell>
                <mxCell id="xde6bj1MVYbyTkNECEby-160" value="" style="endArrow=none;fontFamily=Helvetica;fontSize=10;fontColor=default;entryX=0;entryY=0.5;entryDx=0;entryDy=0;exitX=1;exitY=0.5;exitDx=0;exitDy=0;rounded=0;html=1;edgeStyle=orthogonalEdgeStyle;" parent="1" source="xde6bj1MVYbyTkNECEby-129" target="xde6bj1MVYbyTkNECEby-141" edge="1">
                    <mxGeometry width="50" height="50" relative="1" as="geometry">
                        <mxPoint x="1690" y="775" as="sourcePoint"/>
                        <mxPoint x="1740" y="725" as="targetPoint"/>
                    </mxGeometry>
                </mxCell>
                <mxCell id="xde6bj1MVYbyTkNECEby-161" value="" style="endArrow=none;fontFamily=Helvetica;fontSize=10;fontColor=default;entryX=0;entryY=0.5;entryDx=0;entryDy=0;exitX=1;exitY=0.5;exitDx=0;exitDy=0;rounded=0;html=1;edgeStyle=orthogonalEdgeStyle;" parent="1" source="xde6bj1MVYbyTkNECEby-117" target="xde6bj1MVYbyTkNECEby-145" edge="1">
                    <mxGeometry width="50" height="50" relative="1" as="geometry">
                        <mxPoint x="1640" y="775" as="sourcePoint"/>
                        <mxPoint x="1690" y="725" as="targetPoint"/>
                    </mxGeometry>
                </mxCell>
                <mxCell id="xde6bj1MVYbyTkNECEby-162" value="" style="endArrow=none;fontFamily=Helvetica;fontSize=10;fontColor=default;entryX=0;entryY=0.5;entryDx=0;entryDy=0;exitX=1;exitY=0.5;exitDx=0;exitDy=0;rounded=0;html=1;edgeStyle=orthogonalEdgeStyle;" parent="1" source="xde6bj1MVYbyTkNECEby-145" target="xde6bj1MVYbyTkNECEby-146" edge="1">
                    <mxGeometry width="50" height="50" relative="1" as="geometry">
                        <mxPoint x="1760" y="805" as="sourcePoint"/>
                        <mxPoint x="1810" y="755" as="targetPoint"/>
                    </mxGeometry>
                </mxCell>
                <mxCell id="xde6bj1MVYbyTkNECEby-163" value="" style="endArrow=none;fontFamily=Helvetica;fontSize=10;fontColor=default;entryX=0;entryY=0.5;entryDx=0;entryDy=0;exitX=1;exitY=0.5;exitDx=0;exitDy=0;rounded=0;html=1;edgeStyle=orthogonalEdgeStyle;" parent="1" source="xde6bj1MVYbyTkNECEby-145" target="xde6bj1MVYbyTkNECEby-147" edge="1">
                    <mxGeometry width="50" height="50" relative="1" as="geometry">
                        <mxPoint x="1700" y="785" as="sourcePoint"/>
                        <mxPoint x="1750" y="735" as="targetPoint"/>
                    </mxGeometry>
                </mxCell>
                <mxCell id="xde6bj1MVYbyTkNECEby-164" value="" style="endArrow=none;fontFamily=Helvetica;fontSize=10;fontColor=default;entryX=0;entryY=0.5;entryDx=0;entryDy=0;exitX=1;exitY=0.5;exitDx=0;exitDy=0;rounded=0;html=1;edgeStyle=orthogonalEdgeStyle;" parent="1" source="xde6bj1MVYbyTkNECEby-118" target="xde6bj1MVYbyTkNECEby-122" edge="1">
                    <mxGeometry width="50" height="50" relative="1" as="geometry">
                        <mxPoint x="1650" y="430" as="sourcePoint"/>
                        <mxPoint x="1700" y="380" as="targetPoint"/>
                    </mxGeometry>
                </mxCell>
                <mxCell id="xde6bj1MVYbyTkNECEby-165" value="" style="endArrow=none;fontFamily=Helvetica;fontSize=10;fontColor=default;entryX=0;entryY=0.5;entryDx=0;entryDy=0;exitX=1;exitY=0.5;exitDx=0;exitDy=0;rounded=0;html=1;edgeStyle=orthogonalEdgeStyle;" parent="1" source="xde6bj1MVYbyTkNECEby-118" target="xde6bj1MVYbyTkNECEby-127" edge="1">
                    <mxGeometry width="50" height="50" relative="1" as="geometry">
                        <mxPoint x="1650" y="470" as="sourcePoint"/>
                        <mxPoint x="1700" y="420" as="targetPoint"/>
                    </mxGeometry>
                </mxCell>
                <mxCell id="xde6bj1MVYbyTkNECEby-167" value="Accumulated Local &lt;br style=&quot;font-size: 11px;&quot;&gt;Effects" style="ellipse;whiteSpace=wrap;html=1;fontSize=11;labelBackgroundColor=none;labelBorderColor=none;" parent="1" vertex="1">
                    <mxGeometry x="1960" y="490" width="140" height="29.93" as="geometry"/>
                </mxCell>
                <mxCell id="xde6bj1MVYbyTkNECEby-168" value="Partial Dependence Plot" style="ellipse;whiteSpace=wrap;html=1;fontSize=11;labelBackgroundColor=none;labelBorderColor=none;" parent="1" vertex="1">
                    <mxGeometry x="1960" y="448" width="140" height="29.92" as="geometry"/>
                </mxCell>
                <mxCell id="xde6bj1MVYbyTkNECEby-169" value="Anchors" style="ellipse;whiteSpace=wrap;html=1;fontSize=11;labelBackgroundColor=none;labelBorderColor=none;" parent="1" vertex="1">
                    <mxGeometry x="1960" y="368" width="141.33829999999998" height="25.984199999999998" as="geometry"/>
                </mxCell>
                <mxCell id="xde6bj1MVYbyTkNECEby-170" value="LIME" style="ellipse;whiteSpace=wrap;html=1;fontSize=11;" parent="1" vertex="1">
                    <mxGeometry x="1960" y="408" width="141.33829999999998" height="25.984199999999998" as="geometry"/>
                </mxCell>
                <mxCell id="xde6bj1MVYbyTkNECEby-128" value="Accumulated Local &lt;br style=&quot;font-size: 11px;&quot;&gt;Effects" style="ellipse;whiteSpace=wrap;html=1;fontSize=11;" parent="1" vertex="1">
                    <mxGeometry x="1770" y="560" width="140.16" height="30.99" as="geometry"/>
                </mxCell>
                <mxCell id="xde6bj1MVYbyTkNECEby-130" value="Partial Dependence Plot" style="ellipse;whiteSpace=wrap;html=1;fontSize=11;" parent="1" vertex="1">
                    <mxGeometry x="1770" y="470" width="140.16" height="30" as="geometry"/>
                </mxCell>
                <mxCell id="xde6bj1MVYbyTkNECEby-139" value="Individual Conditional &lt;br style=&quot;font-size: 11px;&quot;&gt;Expectation" style="ellipse;whiteSpace=wrap;html=1;fontSize=11;" parent="1" vertex="1">
                    <mxGeometry x="1770" y="510" width="140.16" height="35.99" as="geometry"/>
                </mxCell>
                <mxCell id="xde6bj1MVYbyTkNECEby-143" value="Saliency Map" style="ellipse;whiteSpace=wrap;html=1;fontSize=11;" parent="1" vertex="1">
                    <mxGeometry x="1770" y="600.99" width="140.1572" height="30" as="geometry"/>
                </mxCell>
                <mxCell id="86" value="&lt;span style=&quot;font-size: 11px;&quot;&gt;Shapley Value&lt;/span&gt;" style="ellipse;whiteSpace=wrap;html=1;fontSize=11;labelBackgroundColor=none;labelBorderColor=none;" vertex="1" parent="1">
                    <mxGeometry x="1961.3400000000001" y="280" width="140" height="30" as="geometry"/>
                </mxCell>
                <mxCell id="90" value="" style="rounded=0;orthogonalLoop=1;jettySize=auto;exitX=1;exitY=0.5;exitDx=0;exitDy=0;entryX=0;entryY=0.5;entryDx=0;entryDy=0;endArrow=none;endFill=0;fontSize=10;html=1;edgeStyle=orthogonalEdgeStyle;" edge="1" parent="1" target="86">
                    <mxGeometry relative="1" as="geometry">
                        <mxPoint x="1910.1572" y="313.99" as="sourcePoint"/>
                        <mxPoint x="1959.9999999999955" y="331.98210000000006" as="targetPoint"/>
                        <Array as="points">
                            <mxPoint x="1935" y="314"/>
                            <mxPoint x="1935" y="295"/>
                        </Array>
                    </mxGeometry>
                </mxCell>
            </root>
        </mxGraphModel>
    </diagram>
</mxfile>